<?xml version="1.0" encoding="iso-8859-1"?>
<!-- Generator: Adobe Illustrator 22.1.0, SVG Export Plug-In . SVG Version: 6.00 Build 0)  -->
<svg xmlns="http://www.w3.org/2000/svg" xmlns:xlink="http://www.w3.org/1999/xlink" version="1.1" id="Layer_1_1_" x="0px" y="0px" viewBox="0 0 64 64" style="enable-background:new 0 0 64 64;" xml:space="preserve" width="512" height="512">
<g>
	<g>
		<path style="fill:#F0BC5E;" d="M60.978,22.77c-0.51-0.496-1.459-1.42-1.475-1.769c0.016-0.351,0.965-1.274,1.475-1.771    c1.138-1.107,2.313-2.253,1.961-3.572c-0.363-1.358-1.99-1.77-3.563-2.167c-0.658-0.166-1.883-0.476-2.078-0.741    c-0.146-0.311,0.203-1.551,0.391-2.217c0.436-1.546,0.887-3.145-0.095-4.126s-2.58-0.529-4.127-0.095    C52.8,6.5,51.561,6.854,51.257,6.708c-0.272-0.2-0.582-1.425-0.748-2.083c-0.397-1.573-0.809-3.2-2.168-3.563    c-1.316-0.357-2.463,0.824-3.571,1.961c-0.496,0.51-1.42,1.459-1.769,1.475c-0.351-0.016-1.274-0.965-1.771-1.475    c-1.108-1.137-2.245-2.318-3.572-1.961c-1.358,0.363-1.77,1.99-2.167,3.563c-0.166,0.658-0.476,1.883-0.741,2.078    c-0.312,0.147-1.551-0.203-2.217-0.391c-1.546-0.436-3.146-0.887-4.126,0.095c-0.981,0.98-0.53,2.58-0.095,4.127    c0.188,0.666,0.537,1.906,0.396,2.209c-0.2,0.272-1.425,0.582-2.083,0.748c-1.573,0.397-3.2,0.809-3.563,2.166    c-0.014,0.054-0.008,0.111-0.017,0.166c1.969,1.304,3.498,3.219,4.306,5.482C28.709,20.482,30.296,20,32,20c4.971,0,9,4.029,9,9    c2.761,0,5,2.239,5,5c0,1.691-0.844,3.179-2.129,4.083c0.026,0.026,0.056,0.054,0.081,0.08c0.27,0.25,0.543,0.532,0.815,0.812    c0.973,0.998,1.973,2.026,3.095,2.026c0.157,0,0.316-0.02,0.479-0.063c1.358-0.363,1.77-1.99,2.167-3.563    c0.166-0.658,0.476-1.883,0.741-2.078c0.313-0.148,1.551,0.204,2.217,0.391c1.545,0.435,3.144,0.886,4.126-0.095    c0.981-0.98,0.53-2.58,0.095-4.127C57.5,30.8,57.15,29.56,57.292,29.257c0.2-0.272,1.425-0.582,2.083-0.748    c1.573-0.397,3.2-0.809,3.563-2.168C63.291,25.022,62.115,23.877,60.978,22.77z"/>
	</g>
	<g>
		<path style="fill:#F0BC5E;" d="M23.991,62.998c-0.42,0-0.844-0.043-1.266-0.13c-2.333-0.483-4.19-2.394-4.623-4.753    c-0.382-2.082,0.342-4.168,1.897-5.563V30c0-2.206,1.794-4,4-4s4,1.794,4,4v22.551c1.277,1.142,2,2.736,2,4.449    c0,1.813-0.808,3.51-2.215,4.655C26.706,62.533,25.37,62.998,23.991,62.998z"/>
	</g>
	<g>
		<rect x="20" y="36" width="4" height="2"/>
		<rect x="20" y="32" width="4" height="2"/>
		<rect x="20" y="40" width="4" height="2"/>
		<rect x="20" y="44" width="4" height="2"/>
		<rect x="20" y="48" width="4" height="2"/>
		<rect x="23" y="56" width="2" height="2"/>
		<path d="M56,21c0-7.168-5.832-13-13-13c-6.479,0-11.974,4.859-12.861,11.196c-0.789,0.149-1.557,0.383-2.287,0.716    C25.933,15.836,21.796,13,17,13c-6.617,0-12,5.383-12,12c0,1.097,0.153,2.171,0.442,3.212C2.888,28.901,1,31.231,1,34    c0,3.309,2.691,6,6,6h13v-2H7c-2.206,0-4-1.794-4-4s1.794-4,4-4s4,1.794,4,4h2c0-3.149-2.439-5.733-5.527-5.976    C7.164,27.05,7,26.037,7,25c0-5.514,4.486-10,10-10s10,4.486,10,10h2c0-1.111-0.164-2.182-0.447-3.204    C29.625,21.283,30.798,21,32,21c4.106,0,7.496,3.111,7.946,7.099C37.139,28.599,35,31.052,35,34h2c0-2.206,1.794-4,4-4    s4,1.794,4,4s-1.794,4-4,4H28v2h13c3.309,0,6-2.691,6-6c0-0.21-0.011-0.418-0.032-0.622C52.33,31.67,56,26.712,56,21z     M46.425,31.455c-0.83-1.761-2.488-3.052-4.472-3.371c-0.459-5.025-4.649-8.98-9.77-9.074C33.129,13.875,37.675,10,43,10    c6.065,0,11,4.935,11,11C54,25.81,50.926,29.99,46.425,31.455z"/>
	</g>
</g>
</svg>
